<svg xmlns="http://www.w3.org/2000/svg" viewBox="0 0 166 152" fill="none">
  <g clip-path="url(#c)">
    <path d="M45.79 3.73C44.7 2.64 45.47 0.78 47.01 0.78H93.5C94.41 0.78 95.3 1.14 95.94 1.79L163.38 69.23C166.97 72.83 166.97 78.66 163.38 82.25L147.9 97.73C147.47 98.17 146.89 98.41 146.28 98.41H97.91C96.89 98.41 96.38 97.16 97.1 96.44L111.29 82.25C114.89 78.65 114.89 72.82 111.29 69.23L45.79 3.73Z" fill="#7C3AED"/>
    <path d="M121.26 147.83C122.34 148.92 121.58 150.78 120.04 150.78H73.55C72.64 150.78 71.76 150.42 71.11 149.77L3.67 82.33C0.07 78.73 0.07 72.9 3.67 69.31L19.15 53.83C19.58 53.39 20.16 53.15 20.78 53.15H69.14C70.16 53.15 70.67 54.4 69.95 55.12L55.76 69.31C52.16 72.91 52.16 78.74 55.76 82.33L121.26 147.83Z" fill="#4F46E5"/>
  </g>
  <defs>
    <clipPath id="c"><rect width="165.114" height="150" fill="white" transform="translate(0.969 0.78)"/></clipPath>
  </defs>
</svg>
